# xmcd
# 
# Track frame offsets:
#     150
#     13595
#     29685
#     43781
#     61834
#     74705
#     88981
#     99274
#     118298
#     129360
#     142153
#     154812
#     169432
#     182184
#     193500
#     203990
# 
# Disc length: 2887
# 
# Revision: 3
# Processed by: cddbd v1.5.2PL0 Copyright (c) Steve Scherf et al.
# Submitted via: fre:ac v1.0.31
# 
DISCID=f60b4510
DTITLE=Verskeie Kunstenaars - Kersfees Tuis
DYEAR=2004
DGENRE=Gospel
TTITLE0=Stille Nag
TTITLE1=Mary's Boy Child
TTITLE2=When A Child Is Born
TTITLE3=O Holy Night
TTITLE4=Little Drummer Boy
TTITLE5=Somer Kersfees
TTITLE6=Joy To The World
TTITLE7=A Winters Tale
TTITLE8=Die Heiland Is Gebore
TTITLE9=Come All Ye Faithfull
TTITLE10=First Noel
TTITLE11=White Christmas
TTITLE12=Hark The Herald Angels Sing
TTITLE13=Away In A Manger
TTITLE14=Stille Nag (In Flaams)
TTITLE15=Die Goeie Oue Tyd
EXTD=
EXTT0=
EXTT1=
EXTT2=
EXTT3=
EXTT4=
EXTT5=
EXTT6=
EXTT7=
EXTT8=
EXTT9=
EXTT10=
EXTT11=
EXTT12=
EXTT13=
EXTT14=
EXTT15=
PLAYORDER=
